<svg version="1" xmlns="http://www.w3.org/2000/svg" width="1365.333" height="1365.333" viewBox="0 0 1024.000000 1024.000000"><path d="M80.4 72.3c-12.7 2.6-19.6 19.8-22 54.7-1.9 28-.9 50.1 3.1 73.5.9 4.9 1.8 10.3 2.1 12 1.3 7.3 6.8 31.1 10 42.9 7.2 26.6 16.3 50.7 23.1 61.1 4.6 7.1 5.4 8 9.2 10.3 3.5 2.1 4.3 2 11.1-.9 11.6-5.1 25.2-13.3 34.5-20.8 3.9-3.1 10.4-8.2 14.5-11.3 4.1-3.1 9.2-7.4 11.3-9.6 3.8-3.9 6.9-10.5 6-12.8-.2-.7-4.8-3.2-10.1-5.5-11-4.8-23.9-11.4-26.3-13.5-.8-.8-1.9-1.4-2.3-1.4-1.5 0-17.2-12.6-24.1-19.4-17.3-17.1-24.9-31.2-30-55.9-1.4-6.7-1.9-10.2-3.1-20.2-1.3-10.1-1.2-38.4.1-46.2.7-4.5 1.6-8.7 2-9.4 2.2-3.4 24.5 3.7 60.3 19.1 37.3 16 43.7 20.1 49.2 31.4 3.6 7.5 4.8 14.2 4.4 24.9-.3 9.7-.6 11.5-3.9 23.8-3.3 12.1-3.6 13.7-3 17.6 1.2 7 9.6 12.8 22.5 15.5l6.2 1.2 12.7-13c27.4-28.2 32-34.4 35.5-47.9 3.2-12.6 4.2-23.6 2.6-27.6-.7-1.6-3.2-4-5.9-5.6-4.6-2.7-35.7-18.3-36.5-18.3-.2 0-3.7-1.5-7.8-3.4-9.8-4.6-30.9-13.5-43.8-18.5-5.8-2.3-11.4-4.6-12.5-5.1-4.7-2.1-30.5-10.8-43.1-14.5-10-3-9.4-2.8-19-4.9-13.4-2.9-21.2-3.5-27-2.3zM944.7 78.6c-.1.1-4.7.5-10.2.8-5.5.4-11.3.8-13 1-1.6.2-6.6.7-11 1.1-4.4.3-9.1.8-10.5 1-1.4.2-5.2.6-8.5 1-7.4.7-14.2 1.5-17.5 2-1.4.2-5.6.7-9.5 1-3.8.4-7.2.8-7.5 1-.3.2-3.4.6-7 1-3.6.3-7.2.8-8 1-.8.2-4 .7-7 1-3 .3-6.2.8-7 1-.8.2-3.5.7-6 1-2.5.3-6.7 1-9.5 1.5-2.7.5-7 1.2-9.5 1.5-5.9.8-48.2 9.5-49.2 10.2-.5.2-2 .7-3.4.9-5.2.9-22.1 6.7-28.9 9.8-7.9 3.7-13.5 8.8-13.5 12.3 0 6.4 13.9 24.4 23.4 30.3 3.5 2.3 3.2 2.4 23.8-8l15.7-7.9 3.8 5.5c2.1 3.1 4.3 6.1 4.8 6.7.6.7 3.2 4.1 5.8 7.7 2.5 3.6 6.2 8.3 8.1 10.5 3.3 3.9 3.4 4 5.5 2.1 2.9-2.7 4.8-8.6 5.5-18.2 1-11.9 2.4-15.8 8.5-23.4 10.5-13.2 23-20.5 40-23.5 1.9-.3 3.7-.7 4-.9.6-.4 3.4-.9 11.9-2.2 2-.3 4.8-.7 6.2-.9 17.3-2.8 51.4-2.5 60.6.5 3.2 1.1 3.4 1.4 3.4 5.6 0 10.8-4.6 26.3-14.9 50.4-18.7 43.6-31.7 58.1-59.1 65.9-11.2 3.2-16 5.1-16.2 6.4 0 .7-.2 1.9-.3 2.7-.4 4.1 27.5 52 36.3 62.2 5.3 6.2 19.7-15.1 40.7-60.7 5-10.9 20.6-48.4 23.7-57 4.3-11.7 11.5-41.6 14.3-58.5.4-2.5.9-5.3 1.1-6.4 1-5.4 1.9-17.1 1.8-25.2 0-7-.4-9.7-1.7-11.8-1.8-2.6-2-2.7-10.8-2.5-4.9.2-9.1.4-9.2.5zM489.2 100.1c-2.8 1.1-6.2 6.6-6.2 10.2v2.9l-4.7-4.3c-2.7-2.3-6.8-5.1-9.2-6.2-4.9-2.1-12.6-2.5-15.9-.8-5.1 2.7-8.6 14.5-10.8 36.1-.3 3.6-.7 6.6-.7 6.6-.1.1-2.4-.9-5.2-2.3-8.5-4.1-27.7-10.2-33.7-10.6-9.8-.8-15.8 3.3-19.4 13.1-1 2.6-1.9 4.9-2 5.1-.2.2-1.9-1-3.9-2.7-9.3-8.3-24.9-10.5-30.4-4.5-2.2 2.4-4.8 8.4-5.6 12.4-.3 1.9-.8 4.3-1 5.4-.2 1.1-.4 2.8-.4 3.9-.1 1.5-.6 1.7-2.8 1.2-15.3-3.4-23.2-3.9-32.1-2-12.1 2.5-21 9.3-23.3 17.6-2.7 10-1.4 29.3 3.1 47.5 1.1 4.5 2 8.6 2 9 0 .4-3.3.9-7.4.9-4.4.1-10.3 1-14.6 2.3-13 4-18.2 12.2-18.3 29.1l-.1 8.7-4.1-1c-4.9-1.2-29.5-1.5-34.8-.4-11 2.1-18.7 9-22.9 20.3-1.9 5.1-2.2 8-2.2 22.1l-.1 16.1-3.5-.3c-16.1-1.9-36.7.3-45.4 4.7-14.9 7.6-16.7 24.9-4.9 48.3 1.9 3.8 4.6 8.5 5.9 10.4l2.3 3.5-6.7 2.6c-17.2 6.7-23.5 10.9-26.2 17.1-2.1 4.9-4.4 14.7-5.5 23.4-.3 2.7-.8 5.9-1 7-.2 1.1-.4 2.9-.4 4-.1 1.8-.8 2-8.8 2-14.8 0-18.7 3.3-18.4 15.3.2 8.4 4.8 22.1 8.3 24.9.9.7 57.3 1 185.1 1 101 0 183.7-.1 183.7-.2s-8.9-9.2-19.7-20.1c-27.9-28.1-34.5-35.4-43.8-47.9-11.4-15.3-23.5-33.5-23.5-35.2 0-5.2 18.2-22.7 41-39.4 20.7-15.2 47.6-33.3 83.7-56.4 10.4-6.6 28-18 39.3-25.5 31.2-20.6 81.4-51.8 100.5-62.4C639.9 204 649 197 649 193.7c-.1-3.1-3.3-9.8-5.8-12-3.5-3.2-8.7-3.7-16.2-1.8l-6.7 1.7.8-3c1.3-4.5 1.3-15 0-17.4-3.8-7-16.7-1.4-23.6 10.4-1.5 2.5-2.8 4.4-3 4.2-.2-.2-3.1-4.6-6.5-9.8-10.9-16.6-20.3-26.9-28.4-30.9-3.8-1.9-11.7-4.4-17.6-5.5-19.3-3.8-18.4-3.5-21.6-8.5-8.1-12.9-24.1-23.6-31.2-21z"/><path d="M744.2 173.9c-7.6 3.9-16.9 8.7-20.8 10.9-3.8 2.1-9.4 5.2-12.4 6.9-11.5 6.3-48.9 27.3-52 29.3-.8.5-5.3 3.1-10 5.8-4.7 2.7-14.1 8.1-21 12.2-6.9 4-13.4 7.8-14.5 8.4-1.1.6-3.1 1.9-4.5 2.7-1.4.9-10.4 6.3-20 12-83.6 49.3-162.7 100.5-186.5 120.6-9.1 7.7-11.6 11.4-10.5 15.4 3.1 10.6 20.9 34.1 49 64.4 3 3.3 13.7 14.3 23.8 24.6l18.3 18.6 168.7.1h168.7l7-3.7c3.9-2 7.9-4.2 9-4.8 1.1-.7 10.8-6 21.5-11.8 38-20.7 59-33.4 63.4-38.3 2.1-2.4 1.9-4.1-2.1-14.2-3.8-9.7-22.4-46.7-33.1-66-1.4-2.5-3.8-7-5.5-10-1.6-3-6.1-11.1-9.9-17.8-3.8-6.8-8.1-14.4-9.5-17-1.4-2.5-3.8-6.6-5.3-9.1-1.4-2.6-2.9-5.3-3.3-6.1-.4-.8-1.5-2.9-2.6-4.5-1-1.7-5.8-9.8-10.6-18-25.2-43.1-51.4-84.8-64.2-102.5-7.6-10.3-12.3-15-14.9-15-1.3 0-8.5 3.1-16.2 6.9zM41.7 527.4c-.5 1.7-.1 22.1.8 32.1.4 4.9.9 10.6 1 12.5.3 3.2.6 5.3 2 14.5.3 1.6.7 4.8 1.1 7 .5 3.2 3 15.3 4.9 23.5 9.5 41.7 29.8 87.1 54.6 122.2 25.8 36.5 56.9 66.1 97.8 93.3 16.1 10.6 47.5 29.5 49.3 29.5.5 0 2.2.8 3.6 1.8 4.1 2.8 30.1 15.3 44.7 21.5 15.9 6.6 39.9 15.5 52 19.2 5 1.5 10.9 3.4 13.1 4.1 4.9 1.5 35.6 9.1 39.9 9.8 1.7.3 4.1.7 5.5 1.1 2.8.6 4 .8 16.5 2.9 7.9 1.3 13.5 2.1 31 4.1 22.6 2.5 71.2 2.5 91 0 1.7-.2 5.3-.7 8-1 2.8-.3 9.3-1.2 14.5-2.1 13.3-2.1 15.3-2.4 17-2.9.8-.2 2.9-.7 4.5-1 5.6-.9 7.3-1.3 20.7-4.9 48.2-12.7 91.6-33.3 133.3-63 3.9-2.8 7.2-5.3 7.5-5.6.3-.3 3.2-2.7 6.5-5.2 11.5-8.8 32.4-28.2 44-40.9 19.8-21.8 37.3-46.4 54.9-77.1 4-7.2 17-33.4 20.1-40.8 1.5-3.6 3.6-8.3 4.6-10.5 6.9-14.9 21.8-60.1 27.4-83.5 1.4-5.6 6.5-29.1 7-31.8.3-1.7.7-4.7 1-6.5.3-1.7.8-3.9 1-4.7.2-.8.6-3.8 1-6.5.3-2.8.8-6.6 1.1-8.6l.5-3.6H483.6c-329.1-.1-441.6.2-441.9 1.1z"/><path d="M349.3 928.7c-2.8 4.3-6.2 10-7.4 12.8-2.8 6.4-5.5 17-5.5 21.5.1 3.2.6 3.7 4.8 5.8 4.6 2.3 17.6 5.9 31.3 8.7 3.9.8 7.9 1.6 9 1.8 1.1.3 4.2.8 6.8 1.1 2.7.4 5.9.9 7 1.2 3.9.8 7.1 1.3 12.7 1.9 3 .4 5.7.8 6 1 .3.2 3.8.6 7.8 1 4.1.3 8.1.8 9 1 .9.1 5.5.6 10.2 1 4.6.4 9.6.9 11 1 8.2 1 32.5 1.9 52 1.9 36.8 0 68.4-2.5 94.5-7.4 9.6-1.8 14-2.9 21.1-5.1 8.3-2.7 10.7-5 10-9.9-1.2-8.5-9.2-23.8-18.9-36.1l-2.8-3.6-4.9 1.3c-2.7.7-6.4 1.5-8.2 1.8-1.8.3-6.9 1.2-11.3 2s-10.2 1.7-12.8 2.1c-2.7.4-5.6.8-6.5 1-1 .1-4.6.6-8.2.9-3.6.4-8.1.9-10 1.1-18.6 2.2-59.2 3.4-73.5 2-11.5-1-24-2.5-35.5-4.1-16-2.3-53.7-9.4-80.5-15.1-1.6-.3-3.1 1.2-7.2 7.4z"/></svg>